<svg xmlns="http://www.w3.org/2000/svg" viewBox="0 0 120 120" role="img" aria-label="Ortiz portrait">
  <defs>
    <linearGradient id="bg" x1="0" y1="0" x2="1" y2="1">
      <stop offset="0" stop-color="#07131C"/>
      <stop offset="1" stop-color="#0C1D27"/>
    </linearGradient>
    <linearGradient id="face" x1="0" y1="0" x2="1" y2="1">
      <stop offset="0" stop-color="#9CFFD0"/>
      <stop offset="1" stop-color="#35BFFF"/>
    </linearGradient>
  </defs>
  <rect width="120" height="120" rx="24" fill="url(#bg)"/>
  <path d="M37 91c4-17 13-26 25-26 13 0 23 10 27 26v7H37z" fill="#143044"/>
  <path d="M43 41c0-13 8-22 20-22 13 0 21 9 21 23 0 16-8 28-21 28-12 0-20-12-20-29Z" fill="url(#face)" fill-opacity=".8"/>
  <path d="M40 39c4-16 13-24 28-24 10 0 18 4 23 13-12-3-23-1-31 4-7 4-12 7-20 7Z" fill="#163B4C"/>
  <path d="M49 47h10m10 0h10" stroke="#061218" stroke-width="2.8" stroke-linecap="round"/>
  <path d="M57 58c5 2 10 2 15-1" stroke="#061218" stroke-width="2" stroke-linecap="round"/>
  <path d="M25 28h12M84 34h13M24 83h12" stroke="#71F1FF" stroke-width="2" stroke-linecap="round"/>
  <path d="M88 80h10M95 51h6" stroke="#7DFFB2" stroke-width="2" stroke-linecap="round"/>
  <rect x="17" y="16" width="86" height="88" rx="18" fill="none" stroke="#7DFFB2" stroke-opacity=".2"/>
</svg>